<mxfile host="app.diagrams.net" modified="2023-11-20T12:46:59.662Z" agent="Mozilla/5.0 (Windows NT 10.0; Win64; x64) AppleWebKit/537.36 (KHTML, like Gecko) Chrome/119.0.0.0 Safari/537.36" etag="waxtSxmRO_O-_MbMiGpl" version="22.1.3" type="github">
  <diagram name="Page-1" id="VcDF81wQu0JRFsIFgcLP">
    <mxGraphModel dx="1728" dy="950" grid="1" gridSize="10" guides="1" tooltips="1" connect="1" arrows="1" fold="1" page="1" pageScale="1" pageWidth="850" pageHeight="1100" math="0" shadow="0">
      <root>
        <mxCell id="0" />
        <mxCell id="1" parent="0" />
        <mxCell id="2wMZLsTm2W_XDd2I_gO9-4" value="Utleie" style="rounded=0;whiteSpace=wrap;html=1;fillColor=#dae8fc;strokeColor=#6c8ebf;" vertex="1" parent="1">
          <mxGeometry x="580" y="380" width="120" height="70" as="geometry" />
        </mxCell>
        <mxCell id="2wMZLsTm2W_XDd2I_gO9-5" value="Vedlikehold" style="rounded=0;whiteSpace=wrap;html=1;fillColor=#dae8fc;strokeColor=#6c8ebf;" vertex="1" parent="1">
          <mxGeometry x="320" y="610" width="130" height="60" as="geometry" />
        </mxCell>
        <mxCell id="2wMZLsTm2W_XDd2I_gO9-20" style="edgeStyle=orthogonalEdgeStyle;rounded=0;orthogonalLoop=1;jettySize=auto;html=1;startArrow=ERone;startFill=0;endArrow=ERmany;endFill=0;" edge="1" parent="1" source="2wMZLsTm2W_XDd2I_gO9-6">
          <mxGeometry relative="1" as="geometry">
            <mxPoint x="380" y="380" as="targetPoint" />
          </mxGeometry>
        </mxCell>
        <mxCell id="2wMZLsTm2W_XDd2I_gO9-21" style="edgeStyle=orthogonalEdgeStyle;rounded=0;orthogonalLoop=1;jettySize=auto;html=1;entryX=0.5;entryY=0;entryDx=0;entryDy=0;endArrow=ERmany;endFill=0;startArrow=ERone;startFill=0;" edge="1" parent="1" source="2wMZLsTm2W_XDd2I_gO9-6" target="2wMZLsTm2W_XDd2I_gO9-4">
          <mxGeometry relative="1" as="geometry" />
        </mxCell>
        <mxCell id="2wMZLsTm2W_XDd2I_gO9-6" value="HytteEier" style="rounded=0;whiteSpace=wrap;html=1;fillColor=#dae8fc;strokeColor=#6c8ebf;" vertex="1" parent="1">
          <mxGeometry x="450" y="160" width="120" height="60" as="geometry" />
        </mxCell>
        <mxCell id="2wMZLsTm2W_XDd2I_gO9-7" value="Betaling" style="rounded=0;whiteSpace=wrap;html=1;fillColor=#dae8fc;strokeColor=#6c8ebf;" vertex="1" parent="1">
          <mxGeometry x="800" y="610" width="120" height="60" as="geometry" />
        </mxCell>
        <mxCell id="2wMZLsTm2W_XDd2I_gO9-22" style="edgeStyle=orthogonalEdgeStyle;rounded=0;orthogonalLoop=1;jettySize=auto;html=1;entryX=0;entryY=0.5;entryDx=0;entryDy=0;endArrow=ERmany;endFill=0;startArrow=ERone;startFill=0;" edge="1" parent="1" source="2wMZLsTm2W_XDd2I_gO9-11" target="2wMZLsTm2W_XDd2I_gO9-4">
          <mxGeometry relative="1" as="geometry" />
        </mxCell>
        <mxCell id="2wMZLsTm2W_XDd2I_gO9-11" value="Hytte" style="rounded=0;whiteSpace=wrap;html=1;fillColor=#dae8fc;strokeColor=#6c8ebf;" vertex="1" parent="1">
          <mxGeometry x="320" y="380" width="130" height="70" as="geometry" />
        </mxCell>
        <mxCell id="2wMZLsTm2W_XDd2I_gO9-12" value="Kunde" style="rounded=0;whiteSpace=wrap;html=1;fillColor=#dae8fc;strokeColor=#6c8ebf;" vertex="1" parent="1">
          <mxGeometry x="800" y="390" width="120" height="60" as="geometry" />
        </mxCell>
        <mxCell id="2wMZLsTm2W_XDd2I_gO9-28" style="edgeStyle=orthogonalEdgeStyle;rounded=0;orthogonalLoop=1;jettySize=auto;html=1;entryX=0.5;entryY=0;entryDx=0;entryDy=0;endArrow=ERmany;endFill=0;startArrow=ERone;startFill=0;" edge="1" parent="1" source="2wMZLsTm2W_XDd2I_gO9-14" target="2wMZLsTm2W_XDd2I_gO9-7">
          <mxGeometry relative="1" as="geometry" />
        </mxCell>
        <mxCell id="2wMZLsTm2W_XDd2I_gO9-14" value="KundeID(&lt;font color=&quot;#ff0000&quot;&gt;PK&lt;/font&gt;)&lt;br&gt;BetalingsID(&lt;font color=&quot;#3333ff&quot;&gt;FK&lt;/font&gt;)" style="rounded=0;whiteSpace=wrap;html=1;align=left;fillColor=#fff2cc;strokeColor=#d6b656;" vertex="1" parent="1">
          <mxGeometry x="800" y="450" width="120" height="60" as="geometry" />
        </mxCell>
        <mxCell id="2wMZLsTm2W_XDd2I_gO9-15" value="HytteNr(&lt;font color=&quot;#ff0000&quot;&gt;PK&lt;/font&gt;,&lt;font color=&quot;#3333ff&quot;&gt;FK&lt;/font&gt;)&lt;br&gt;KundeID(&lt;font color=&quot;#3333ff&quot;&gt;FK&lt;/font&gt;)&lt;br&gt;EierID(&lt;font color=&quot;#3333ff&quot;&gt;FK&lt;/font&gt;)" style="rounded=0;whiteSpace=wrap;html=1;fillColor=#fff2cc;strokeColor=#d6b656;" vertex="1" parent="1">
          <mxGeometry x="580" y="450" width="120" height="60" as="geometry" />
        </mxCell>
        <mxCell id="2wMZLsTm2W_XDd2I_gO9-16" value="EierID(&lt;font color=&quot;#ff0000&quot;&gt;PK&lt;/font&gt;)" style="rounded=0;whiteSpace=wrap;html=1;fillColor=#fff2cc;strokeColor=#d6b656;" vertex="1" parent="1">
          <mxGeometry x="450" y="220" width="120" height="60" as="geometry" />
        </mxCell>
        <mxCell id="2wMZLsTm2W_XDd2I_gO9-26" style="edgeStyle=orthogonalEdgeStyle;rounded=0;orthogonalLoop=1;jettySize=auto;html=1;endArrow=ERmany;endFill=0;startArrow=ERone;startFill=0;" edge="1" parent="1" source="2wMZLsTm2W_XDd2I_gO9-17" target="2wMZLsTm2W_XDd2I_gO9-5">
          <mxGeometry relative="1" as="geometry" />
        </mxCell>
        <mxCell id="2wMZLsTm2W_XDd2I_gO9-17" value="HytteNr(&lt;font color=&quot;#ff0000&quot;&gt;PK&lt;/font&gt;)&lt;br&gt;EierID(&lt;font color=&quot;#3333ff&quot;&gt;FK&lt;/font&gt;)" style="rounded=0;whiteSpace=wrap;html=1;align=left;fillColor=#fff2cc;strokeColor=#d6b656;" vertex="1" parent="1">
          <mxGeometry x="320" y="450" width="130" height="60" as="geometry" />
        </mxCell>
        <mxCell id="2wMZLsTm2W_XDd2I_gO9-18" value="Vedlikeholdsnr(&lt;font color=&quot;#ff0000&quot;&gt;PK&lt;/font&gt;)&lt;br&gt;HytteNr(&lt;font color=&quot;#3333ff&quot;&gt;FK&lt;/font&gt;)" style="rounded=0;whiteSpace=wrap;html=1;fillColor=#fff2cc;strokeColor=#d6b656;" vertex="1" parent="1">
          <mxGeometry x="320" y="670" width="130" height="60" as="geometry" />
        </mxCell>
        <mxCell id="2wMZLsTm2W_XDd2I_gO9-19" value="BetalingsID(&lt;font color=&quot;#ff0000&quot;&gt;PK&lt;/font&gt;)" style="rounded=0;whiteSpace=wrap;html=1;align=left;fillColor=#fff2cc;strokeColor=#d6b656;" vertex="1" parent="1">
          <mxGeometry x="800" y="670" width="120" height="60" as="geometry" />
        </mxCell>
        <mxCell id="2wMZLsTm2W_XDd2I_gO9-23" style="edgeStyle=orthogonalEdgeStyle;rounded=0;orthogonalLoop=1;jettySize=auto;html=1;entryX=-0.004;entryY=0.403;entryDx=0;entryDy=0;entryPerimeter=0;startArrow=ERmany;startFill=0;endArrow=ERone;endFill=0;" edge="1" parent="1" source="2wMZLsTm2W_XDd2I_gO9-4" target="2wMZLsTm2W_XDd2I_gO9-12">
          <mxGeometry relative="1" as="geometry" />
        </mxCell>
        <mxCell id="2wMZLsTm2W_XDd2I_gO9-25" value="&lt;font face=&quot;Times New Roman&quot;&gt;&lt;b style=&quot;&quot;&gt;&lt;font color=&quot;#33ffff&quot;&gt;En kunde kan ha flere &quot;utleier&quot; gående, mens en utleie er knyttet til en Kunde&lt;br&gt;1:M&lt;/font&gt;&lt;br&gt;&lt;/b&gt;&lt;/font&gt;" style="text;html=1;strokeColor=none;fillColor=none;align=center;verticalAlign=middle;whiteSpace=wrap;rounded=0;" vertex="1" parent="1">
          <mxGeometry x="930" y="390" width="220" height="30" as="geometry" />
        </mxCell>
        <mxCell id="2wMZLsTm2W_XDd2I_gO9-27" value="&lt;b&gt;&lt;font color=&quot;#33ffff&quot;&gt;&lt;font style=&quot;&quot; face=&quot;Times New Roman&quot;&gt;En hytte kan ha flere vedlikeholdsoppgaver, men et vedlikehold er knyttet til en bestemt hytte&lt;br&gt;&lt;/font&gt;1:M&lt;/font&gt;&lt;/b&gt;" style="text;html=1;strokeColor=none;fillColor=none;align=center;verticalAlign=middle;whiteSpace=wrap;rounded=0;" vertex="1" parent="1">
          <mxGeometry x="255" y="740" width="260" height="30" as="geometry" />
        </mxCell>
        <mxCell id="2wMZLsTm2W_XDd2I_gO9-29" value="&lt;font color=&quot;#33ffff&quot; face=&quot;Times New Roman&quot;&gt;&lt;b&gt;En kunde kan ha flere betalinger, E.G over tid, delbetalinger&lt;br&gt;&lt;br&gt;1:M&lt;/b&gt;&lt;/font&gt;" style="text;html=1;strokeColor=none;fillColor=none;align=center;verticalAlign=middle;whiteSpace=wrap;rounded=0;" vertex="1" parent="1">
          <mxGeometry x="920" y="640" width="180" height="30" as="geometry" />
        </mxCell>
        <mxCell id="2wMZLsTm2W_XDd2I_gO9-30" value="&lt;font color=&quot;#33ffff&quot; face=&quot;Times New Roman&quot;&gt;&lt;b&gt;En hytteEier kan eie flere hytter og kan også ha samtlige utleier&lt;br&gt;&lt;br&gt;1:M&lt;/b&gt;&lt;/font&gt;" style="text;html=1;strokeColor=none;fillColor=none;align=center;verticalAlign=middle;whiteSpace=wrap;rounded=0;" vertex="1" parent="1">
          <mxGeometry x="425" y="110" width="175" height="30" as="geometry" />
        </mxCell>
      </root>
    </mxGraphModel>
  </diagram>
</mxfile>
